<svg xmlns="http://www.w3.org/2000/svg" width="512" height="512" style="shape-rendering:geometricPrecision;text-rendering:geometricPrecision;image-rendering:optimizeQuality;fill-rule:evenodd;clip-rule:evenodd"><path style="opacity:1" fill="#234b8d" d="M-.5-.5h512v512H-.5V-.5z"/><path style="opacity:1" fill="#fefffe" d="M31.5 31.5h448v448h-448v-448z"/><path style="opacity:1" fill="#234b8d" d="M191.5 191.5h-128v-128h128v128z"/><path style="opacity:1" fill="#234b8d" d="M319.5 191.5v32h128v64h-128v32h-32v128h-64v-128h-32v-32h-128v-64h128v-32h32v-128h64v128h32z"/><path style="opacity:1" fill="#234b8d" d="M319.5 191.5v-128h128v128h-128z"/><path style="opacity:1" fill="#fefffe" d="M223.5 223.5h64v64h-64v-64z"/><path style="opacity:1" fill="#234b8d" d="M191.5 319.5v128h-128v-128h128zM319.5 319.5h128v128h-128v-128z"/></svg>